<?xml version="1.0" encoding="UTF-8"?>
<!DOCTYPE svg PUBLIC "-//W3C//DTD SVG 1.1//EN" "http://www.w3.org/Graphics/SVG/1.1/DTD/svg11.dtd">
<svg xmlns="http://www.w3.org/2000/svg" version="1.1" width="500px" height="500px" style="shape-rendering:geometricPrecision; text-rendering:geometricPrecision; image-rendering:optimizeQuality; fill-rule:evenodd; clip-rule:evenodd" xmlns:xlink="http://www.w3.org/1999/xlink">
<g><path style="opacity:1" fill="#151515" d="M 249.5,222.5 C 244.906,222.135 240.573,221.135 236.5,219.5C 240.38,213.134 246.047,209.301 253.5,208C 301.167,207.333 348.833,207.333 396.5,208C 400.044,209.539 402.044,212.206 402.5,216C 394.476,231.044 385.976,245.878 377,260.5C 373.01,265.579 367.843,268.745 361.5,270C 312.775,270.986 264.108,270.652 215.5,269C 212.735,266.005 211.902,262.505 213,258.5C 219.333,247.833 225.667,237.167 232,226.5C 232.5,236.494 232.666,246.494 232.5,256.5C 239.555,256.73 246.555,256.23 253.5,255C 264.455,249.941 267.622,241.774 263,230.5C 259.754,225.698 255.254,223.031 249.5,222.5 Z M 269.5,218.5 C 275.488,218.664 276.821,221.164 273.5,226C 269.945,227.123 267.945,225.789 267.5,222C 267.978,220.697 268.645,219.531 269.5,218.5 Z M 311.5,218.5 C 314.833,217.833 316.833,219.167 317.5,222.5C 314.613,227.711 311.946,227.711 309.5,222.5C 309.752,220.927 310.418,219.594 311.5,218.5 Z M 374.5,256.5 C 372.167,256.5 369.833,256.5 367.5,256.5C 367.5,244.5 367.5,232.5 367.5,220.5C 369.833,220.5 372.167,220.5 374.5,220.5C 374.5,232.5 374.5,244.5 374.5,256.5 Z M 337.5,231.5 C 337.5,233.167 337.5,234.833 337.5,236.5C 335.167,236.5 332.833,236.5 330.5,236.5C 330.182,241.032 330.515,245.366 331.5,249.5C 332.952,250.302 334.618,250.802 336.5,251C 337.38,252.356 337.714,253.856 337.5,255.5C 331.687,257.764 327.021,256.43 323.5,251.5C 323.5,246.5 323.5,241.5 323.5,236.5C 322.167,236.5 320.833,236.5 319.5,236.5C 319.5,234.833 319.5,233.167 319.5,231.5C 320.5,231.5 321.5,231.5 322.5,231.5C 323.468,229.393 323.802,227.059 323.5,224.5C 325.833,224.5 328.167,224.5 330.5,224.5C 330.5,226.833 330.5,229.167 330.5,231.5C 332.833,231.5 335.167,231.5 337.5,231.5 Z M 267.5,230.5 C 270.167,230.5 272.833,230.5 275.5,230.5C 275.5,239.167 275.5,247.833 275.5,256.5C 272.833,256.5 270.167,256.5 267.5,256.5C 267.5,247.833 267.5,239.167 267.5,230.5 Z M 295.5,232.5 C 295.56,233.043 295.893,233.376 296.5,233.5C 297.386,232.675 297.719,231.675 297.5,230.5C 299.833,230.5 302.167,230.5 304.5,230.5C 304.5,239.5 304.5,248.5 304.5,257.5C 299.96,265.089 293.294,267.589 284.5,265C 279.923,263.593 279.423,261.426 283,258.5C 286.035,260.042 289.202,260.542 292.5,260C 294.544,259.502 295.878,258.335 296.5,256.5C 297.788,254.965 297.788,253.299 296.5,251.5C 295.893,251.624 295.56,251.957 295.5,252.5C 285.472,256.651 279.805,253.318 278.5,242.5C 279.016,232.902 284.016,229.069 293.5,231C 294.044,231.717 294.711,232.217 295.5,232.5 Z M 339.5,253.5 C 338.781,251.236 338.448,248.903 338.5,246.5C 339.5,244.167 341.167,242.5 343.5,241.5C 347.5,241.5 351.5,241.5 355.5,241.5C 355.737,240.209 355.404,239.209 354.5,238.5C 353.714,236.265 352.048,235.265 349.5,235.5C 347.05,235.761 344.717,236.428 342.5,237.5C 341.893,237.376 341.56,237.043 341.5,236.5C 341.167,235.167 340.833,233.833 340.5,232.5C 346.018,230.623 351.685,230.123 357.5,231C 358.931,231.465 360.097,232.299 361,233.5C 362.432,241.054 362.932,248.721 362.5,256.5C 360.167,256.5 357.833,256.5 355.5,256.5C 355.719,255.325 355.386,254.325 354.5,253.5C 349.467,257.492 344.467,257.492 339.5,253.5 Z M 316.5,256.5 C 314.167,256.5 311.833,256.5 309.5,256.5C 309.5,247.833 309.5,239.167 309.5,230.5C 311.833,230.5 314.167,230.5 316.5,230.5C 316.5,239.167 316.5,247.833 316.5,256.5 Z"/></g>
<g><path style="opacity:1" fill="#6380b3" d="M 127.5,227.5 C 128.321,221.842 126.154,220.175 121,222.5C 120.51,224.545 120.677,226.545 121.5,228.5C 118.872,227.375 118.039,225.375 119,222.5C 121.661,219.034 124.661,218.701 128,221.5C 128.789,223.712 128.622,225.712 127.5,227.5 Z"/></g>
<g><path style="opacity:0.596" fill="#6d6d6d" d="M 236.5,219.5 C 240.573,221.135 244.906,222.135 249.5,222.5C 244.489,222.666 239.489,222.499 234.5,222C 235.066,221.005 235.733,220.172 236.5,219.5 Z"/></g>
<g><path style="opacity:0.38" fill="#adadad" d="M 374.5,256.5 C 374.5,244.5 374.5,232.5 374.5,220.5C 372.167,220.5 369.833,220.5 367.5,220.5C 367.5,232.5 367.5,244.5 367.5,256.5C 366.505,244.345 366.171,232.011 366.5,219.5C 369.5,219.5 372.5,219.5 375.5,219.5C 375.829,232.011 375.495,244.345 374.5,256.5 Z M 374.5,256.5 C 372.167,256.5 369.833,256.5 367.5,256.5C 367.5,244.5 367.5,232.5 367.5,220.5C 369.833,220.5 372.167,220.5 374.5,220.5C 374.5,232.5 374.5,244.5 374.5,256.5 Z"/></g>
<g><path style="opacity:1" fill="#2953ac" d="M 127.5,227.5 C 125.68,229.461 123.68,229.794 121.5,228.5C 120.677,226.545 120.51,224.545 121,222.5C 126.154,220.175 128.321,221.842 127.5,227.5 Z"/></g>
<g><path style="opacity:0.348" fill="#a3a3a3" d="M 337.5,231.5 C 335.167,231.5 332.833,231.5 330.5,231.5C 330.5,229.167 330.5,226.833 330.5,224.5C 328.167,224.5 325.833,224.5 323.5,224.5C 323.802,227.059 323.468,229.393 322.5,231.5C 322.5,228.833 322.5,226.167 322.5,223.5C 325.5,223.5 328.5,223.5 331.5,223.5C 331.5,225.833 331.5,228.167 331.5,230.5C 333.735,230.205 335.735,230.539 337.5,231.5 Z"/></g>
<g><path style="opacity:1" fill="#0f0f0f" d="M 250.5,229.5 C 254.768,231.336 257.101,234.669 257.5,239.5C 255.819,248.353 250.486,251.686 241.5,249.5C 241.5,242.833 241.5,236.167 241.5,229.5C 244.5,229.5 247.5,229.5 250.5,229.5 Z"/></g>
<g><path style="opacity:0.283" fill="#a6a6a6" d="M 304.5,257.5 C 304.5,248.5 304.5,239.5 304.5,230.5C 302.167,230.5 299.833,230.5 297.5,230.5C 297.719,231.675 297.386,232.675 296.5,233.5C 295.893,233.376 295.56,233.043 295.5,232.5C 296.404,231.791 296.737,230.791 296.5,229.5C 299.5,229.5 302.5,229.5 305.5,229.5C 305.827,239.015 305.494,248.348 304.5,257.5 Z"/></g>
<g><path style="opacity:0.824" fill="#4e74aa" d="M 103.5,224.5 C 100.833,224.5 98.1667,224.5 95.5,224.5C 95.5,235.833 95.5,247.167 95.5,258.5C 94.5051,247.012 94.1717,235.345 94.5,223.5C 97.7131,223.19 100.713,223.523 103.5,224.5 Z"/></g>
<g><path style="opacity:0.379" fill="#a8a8a8" d="M 316.5,256.5 C 316.5,247.833 316.5,239.167 316.5,230.5C 314.167,230.5 311.833,230.5 309.5,230.5C 309.5,239.167 309.5,247.833 309.5,256.5C 308.507,247.682 308.173,238.682 308.5,229.5C 311.5,229.5 314.5,229.5 317.5,229.5C 317.827,238.682 317.493,247.682 316.5,256.5 Z M 316.5,256.5 C 314.167,256.5 311.833,256.5 309.5,256.5C 309.5,247.833 309.5,239.167 309.5,230.5C 311.833,230.5 314.167,230.5 316.5,230.5C 316.5,239.167 316.5,247.833 316.5,256.5 Z"/></g>
<g><path style="opacity:0.302" fill="#adadad" d="M 250.5,229.5 C 247.5,229.5 244.5,229.5 241.5,229.5C 241.5,236.167 241.5,242.833 241.5,249.5C 240.509,242.687 240.175,235.687 240.5,228.5C 244.042,228.187 247.375,228.521 250.5,229.5 Z"/></g>
<g><path style="opacity:1" fill="#4d71ae" d="M 207.5,232.5 C 204.15,232.335 200.817,232.502 197.5,233C 196.491,235.172 194.824,236.338 192.5,236.5C 191.532,238.607 191.198,240.941 191.5,243.5C 189.191,234.953 192.691,230.953 202,231.5C 204.033,231.506 205.866,231.839 207.5,232.5 Z"/></g>
<g><path style="opacity:0.992" fill="#0549ab" d="M 207.5,232.5 C 207.833,232.5 208.167,232.5 208.5,232.5C 209.666,234.166 209.666,235.833 208.5,237.5C 204.584,236.662 200.751,236.328 197,236.5C 196.801,238.402 195.967,239.902 194.5,241C 195.167,241.333 195.833,241.667 196.5,242C 195.207,242.49 193.873,242.657 192.5,242.5C 192.5,240.5 192.5,238.5 192.5,236.5C 194.824,236.338 196.491,235.172 197.5,233C 200.817,232.502 204.15,232.335 207.5,232.5 Z"/></g>
<g><path style="opacity:0.486" fill="#6c6c6c" d="M 337.5,231.5 C 338.268,232.263 338.768,233.263 339,234.5C 339.278,233.584 339.778,232.918 340.5,232.5C 340.833,233.833 341.167,235.167 341.5,236.5C 340.167,235.167 338.833,235.167 337.5,236.5C 337.5,234.833 337.5,233.167 337.5,231.5 Z"/></g>
<g><path style="opacity:1" fill="#1e1e1e" d="M 341.5,236.5 C 341.56,237.043 341.893,237.376 342.5,237.5C 344.717,236.428 347.05,235.761 349.5,235.5C 352.048,235.265 353.714,236.265 354.5,238.5C 351.109,240.125 347.442,241.125 343.5,241.5C 341.167,242.5 339.5,244.167 338.5,246.5C 337.596,247.209 337.263,248.209 337.5,249.5C 335.5,249.5 333.5,249.5 331.5,249.5C 330.515,245.366 330.182,241.032 330.5,236.5C 332.833,236.5 335.167,236.5 337.5,236.5C 338.833,235.167 340.167,235.167 341.5,236.5 Z"/></g>
<g><path style="opacity:0.427" fill="#8cacd6" d="M 179.5,232.5 C 182.287,231.523 185.287,231.19 188.5,231.5C 188.175,239.352 188.508,247.018 189.5,254.5C 189.5,254.833 189.5,255.167 189.5,255.5C 188.833,256.5 188.167,257.5 187.5,258.5C 187.5,249.833 187.5,241.167 187.5,232.5C 184.833,232.5 182.167,232.5 179.5,232.5 Z"/></g>
<g><path style="opacity:1" fill="#232323" d="M 294.5,236.5 C 294.427,238.027 295.094,239.027 296.5,239.5C 298.159,246.358 295.493,249.524 288.5,249C 284.5,244.667 284.5,240.333 288.5,236C 290.598,235.322 292.598,235.489 294.5,236.5 Z"/></g>
<g><path style="opacity:0.727" fill="#8e8e8e" d="M 319.5,231.5 C 319.5,233.167 319.5,234.833 319.5,236.5C 320.833,236.5 322.167,236.5 323.5,236.5C 323.5,241.5 323.5,246.5 323.5,251.5C 322.514,247.03 322.181,242.363 322.5,237.5C 321.167,237.5 319.833,237.5 318.5,237.5C 318.205,235.265 318.539,233.265 319.5,231.5 Z"/></g>
<g><path style="opacity:0.66" fill="#5e5e5e" d="M 267.5,230.5 C 270.287,229.523 273.287,229.19 276.5,229.5C 276.827,238.682 276.493,247.682 275.5,256.5C 275.5,247.833 275.5,239.167 275.5,230.5C 272.833,230.5 270.167,230.5 267.5,230.5 Z"/></g>
<g><path style="opacity:0.471" fill="#949494" d="M 294.5,236.5 C 295.906,236.973 296.573,237.973 296.5,239.5C 295.094,239.027 294.427,238.027 294.5,236.5 Z"/></g>
<g><path style="opacity:1" fill="#0249ac" d="M 147.5,239.5 C 143.082,237.381 140.249,238.714 139,243.5C 138.501,247.821 138.334,252.154 138.5,256.5C 136.833,256.5 135.167,256.5 133.5,256.5C 133.5,249.167 133.5,241.833 133.5,234.5C 135.833,234.5 138.167,234.5 140.5,234.5C 140.369,235.239 140.536,235.906 141,236.5C 142.356,235.62 143.856,235.286 145.5,235.5C 145.5,234.5 145.5,233.5 145.5,232.5C 147.167,232.5 148.833,232.5 150.5,232.5C 150.993,234.806 151.326,237.139 151.5,239.5C 150.167,239.5 148.833,239.5 147.5,239.5 Z"/></g>
<g><path style="opacity:1" fill="#4265ae" d="M 147.5,239.5 C 148.833,239.5 150.167,239.5 151.5,239.5C 151.326,237.139 150.993,234.806 150.5,232.5C 148.833,232.5 147.167,232.5 145.5,232.5C 145.5,233.5 145.5,234.5 145.5,235.5C 143.856,235.286 142.356,235.62 141,236.5C 140.536,235.906 140.369,235.239 140.5,234.5C 146.602,230.234 152.435,230.567 158,235.5C 159.396,243.08 159.896,250.747 159.5,258.5C 156.167,258.5 152.833,258.5 149.5,258.5C 149.666,252.824 149.499,247.157 149,241.5C 148.283,240.956 147.783,240.289 147.5,239.5 Z"/></g>
<g><path style="opacity:0.065" fill="#d8d8d8" d="M 354.5,238.5 C 355.404,239.209 355.737,240.209 355.5,241.5C 351.5,241.5 347.5,241.5 343.5,241.5C 347.442,241.125 351.109,240.125 354.5,238.5 Z"/></g>
<g><path style="opacity:1" fill="#0149ae" d="M 153.5,235.5 C 155.484,235.484 156.484,236.484 156.5,238.5C 155.959,241.208 155.292,243.874 154.5,246.5C 156.039,249.489 157.039,252.656 157.5,256C 155.866,256.494 154.199,256.66 152.5,256.5C 152.326,249.465 152.659,242.465 153.5,235.5 Z"/></g>
<g><path style="opacity:0.135" fill="#bdd7f4" d="M 170.5,248.5 C 169.512,243.36 169.179,238.026 169.5,232.5C 166.833,232.5 164.167,232.5 161.5,232.5C 161.5,238.5 161.5,244.5 161.5,250.5C 160.51,244.355 160.177,238.022 160.5,231.5C 163.833,231.5 167.167,231.5 170.5,231.5C 170.5,237.167 170.5,242.833 170.5,248.5 Z"/></g>
<g><path style="opacity:1" fill="#3a5eac" d="M 208.5,232.5 C 210.311,232.572 211.644,233.405 212.5,235C 211.952,237.27 210.786,239.103 209,240.5C 206.367,239.344 203.7,238.344 201,237.5C 200.25,238.126 199.416,238.626 198.5,239C 202.742,240.898 206.742,243.065 210.5,245.5C 209.883,245.611 209.383,245.944 209,246.5C 207,245.167 205,243.833 203,242.5C 202.667,243.167 202.333,243.833 202,244.5C 200.506,243.253 199.006,243.253 197.5,244.5C 200.08,245.999 202.747,247.499 205.5,249C 204.915,250.302 204.249,251.469 203.5,252.5C 203.586,251.504 203.252,250.671 202.5,250C 199.524,249.295 196.858,248.129 194.5,246.5C 194.027,245.094 193.027,244.427 191.5,244.5C 191.5,244.167 191.5,243.833 191.5,243.5C 191.198,240.941 191.532,238.607 192.5,236.5C 192.5,238.5 192.5,240.5 192.5,242.5C 193.873,242.657 195.207,242.49 196.5,242C 195.833,241.667 195.167,241.333 194.5,241C 195.967,239.902 196.801,238.402 197,236.5C 200.751,236.328 204.584,236.662 208.5,237.5C 209.666,235.833 209.666,234.166 208.5,232.5 Z"/></g>
<g><path style="opacity:0.792" fill="#8bafce" d="M 191.5,244.5 C 193.027,244.427 194.027,245.094 194.5,246.5C 192.973,246.573 191.973,245.906 191.5,244.5 Z"/></g>
<g><path style="opacity:0.345" fill="#a5a5a5" d="M 347.5,245.5 C 349.948,244.527 352.615,244.194 355.5,244.5C 355.768,246.099 355.434,247.432 354.5,248.5C 354.5,247.5 354.5,246.5 354.5,245.5C 352.167,245.5 349.833,245.5 347.5,245.5 Z"/></g>
<g><path style="opacity:1" fill="#282828" d="M 347.5,245.5 C 349.833,245.5 352.167,245.5 354.5,245.5C 354.5,246.5 354.5,247.5 354.5,248.5C 354.423,249.75 353.756,250.583 352.5,251C 350.5,251.667 348.5,251.667 346.5,251C 344.922,248.661 345.255,246.828 347.5,245.5 Z"/></g>
<g><path style="opacity:0.318" fill="#abc7ea" d="M 127.5,258.5 C 127.826,249.651 127.493,240.984 126.5,232.5C 126.167,232.5 125.833,232.5 125.5,232.5C 123.5,232.5 121.5,232.5 119.5,232.5C 119.5,241.167 119.5,249.833 119.5,258.5C 118.833,258.5 118.167,258.5 117.5,258.5C 117.5,256.167 117.5,253.833 117.5,251.5C 112.833,251.5 108.167,251.5 103.5,251.5C 103.5,251.167 103.5,250.833 103.5,250.5C 108.5,250.5 113.5,250.5 118.5,250.5C 118.5,244.167 118.5,237.833 118.5,231.5C 121.833,231.5 125.167,231.5 128.5,231.5C 128.827,240.682 128.493,249.682 127.5,258.5 Z"/></g>
<g><path style="opacity:1" fill="#0d4895" d="M 125.5,232.5 C 125.5,233.5 125.5,234.5 125.5,235.5C 123.833,235.5 122.167,235.5 120.5,235.5C 120.5,242.5 120.5,249.5 120.5,256.5C 122.5,256.5 124.5,256.5 126.5,256.5C 126.5,248.5 126.5,240.5 126.5,232.5C 127.493,240.984 127.826,249.651 127.5,258.5C 124.833,258.5 122.167,258.5 119.5,258.5C 119.5,249.833 119.5,241.167 119.5,232.5C 121.5,232.5 123.5,232.5 125.5,232.5 Z"/></g>
<g><path style="opacity:1" fill="#0149ac" d="M 125.5,232.5 C 125.833,232.5 126.167,232.5 126.5,232.5C 126.5,240.5 126.5,248.5 126.5,256.5C 124.5,256.5 122.5,256.5 120.5,256.5C 120.5,249.5 120.5,242.5 120.5,235.5C 122.167,235.5 123.833,235.5 125.5,235.5C 125.5,234.5 125.5,233.5 125.5,232.5 Z"/></g>
<g><path style="opacity:0.62" fill="#6892ca" d="M 140.5,232.5 C 137.833,232.5 135.167,232.5 132.5,232.5C 132.5,241.167 132.5,249.833 132.5,258.5C 131.507,249.682 131.173,240.682 131.5,231.5C 134.713,231.19 137.713,231.523 140.5,232.5 Z"/></g>
<g><path style="opacity:0.445" fill="#969696" d="M 338.5,246.5 C 338.448,248.903 338.781,251.236 339.5,253.5C 338.833,254.167 338.167,254.833 337.5,255.5C 337.714,253.856 337.38,252.356 336.5,251C 334.618,250.802 332.952,250.302 331.5,249.5C 333.5,249.5 335.5,249.5 337.5,249.5C 337.263,248.209 337.596,247.209 338.5,246.5 Z"/></g>
<g><path style="opacity:0.994" fill="#2553a8" d="M 170.5,248.5 C 173.105,251.054 175.771,251.054 178.5,248.5C 178.372,250.09 177.705,251.423 176.5,252.5C 172.695,251.019 169.028,251.186 165.5,253C 167.037,254.11 167.703,255.61 167.5,257.5C 171.009,257.542 174.342,256.876 177.5,255.5C 177.5,255.833 177.5,256.167 177.5,256.5C 171.839,260.922 166.672,260.255 162,254.5C 161.51,253.207 161.343,251.873 161.5,250.5C 161.5,244.5 161.5,238.5 161.5,232.5C 164.167,232.5 166.833,232.5 169.5,232.5C 169.179,238.026 169.512,243.36 170.5,248.5 Z"/></g>
<g><path style="opacity:1" fill="#7293bf" d="M 195.5,251.5 C 193.708,251.366 192.042,251.699 190.5,252.5C 191.461,248.857 193.128,248.524 195.5,251.5 Z"/></g>
<g><path style="opacity:1" fill="#2351ac" d="M 179.5,232.5 C 182.167,232.5 184.833,232.5 187.5,232.5C 187.5,241.167 187.5,249.833 187.5,258.5C 184.833,258.5 182.167,258.5 179.5,258.5C 179.657,257.127 179.49,255.793 179,254.5C 178.617,255.056 178.117,255.389 177.5,255.5C 174.342,256.876 171.009,257.542 167.5,257.5C 167.703,255.61 167.037,254.11 165.5,253C 169.028,251.186 172.695,251.019 176.5,252.5C 177.705,251.423 178.372,250.09 178.5,248.5C 178.179,242.974 178.512,237.64 179.5,232.5 Z"/></g>
<g><path style="opacity:0.196" fill="#cdcdcd" d="M 295.5,252.5 C 295.56,251.957 295.893,251.624 296.5,251.5C 297.788,253.299 297.788,254.965 296.5,256.5C 296.768,254.901 296.434,253.568 295.5,252.5 Z"/></g>
<g><path style="opacity:0.999" fill="#1c4e99" d="M 140.5,232.5 C 140.5,233.167 140.5,233.833 140.5,234.5C 138.167,234.5 135.833,234.5 133.5,234.5C 133.5,241.833 133.5,249.167 133.5,256.5C 135.167,256.5 136.833,256.5 138.5,256.5C 138.334,252.154 138.501,247.821 139,243.5C 140.249,238.714 143.082,237.381 147.5,239.5C 144.439,239.444 142.272,240.778 141,243.5C 140.501,248.489 140.334,253.489 140.5,258.5C 137.833,258.5 135.167,258.5 132.5,258.5C 132.5,249.833 132.5,241.167 132.5,232.5C 135.167,232.5 137.833,232.5 140.5,232.5 Z"/></g>
<g><path style="opacity:0.996" fill="#2d56aa" d="M 210.5,245.5 C 211.117,245.611 211.617,245.944 212,246.5C 213.724,251.731 212.224,255.565 207.5,258C 200.955,260.433 194.955,259.6 189.5,255.5C 189.5,255.167 189.5,254.833 189.5,254.5C 189.328,253.508 189.662,252.842 190.5,252.5C 192.042,251.699 193.708,251.366 195.5,251.5C 198.127,252.092 200.794,252.425 203.5,252.5C 204.249,251.469 204.915,250.302 205.5,249C 202.747,247.499 200.08,245.999 197.5,244.5C 199.006,243.253 200.506,243.253 202,244.5C 202.333,243.833 202.667,243.167 203,242.5C 205,243.833 207,245.167 209,246.5C 209.383,245.944 209.883,245.611 210.5,245.5 Z"/></g>
<g><path style="opacity:0.986" fill="#104897" d="M 103.5,224.5 C 103.5,233.167 103.5,241.833 103.5,250.5C 103.5,250.833 103.5,251.167 103.5,251.5C 108.167,251.5 112.833,251.5 117.5,251.5C 117.5,253.833 117.5,256.167 117.5,258.5C 110.167,258.5 102.833,258.5 95.5,258.5C 95.5,247.167 95.5,235.833 95.5,224.5C 98.1667,224.5 100.833,224.5 103.5,224.5 Z"/></g>
<g><path style="opacity:1" fill="#0149ac" d="M 103.5,251.5 C 106.962,252.482 110.629,252.815 114.5,252.5C 114.5,253.833 114.5,255.167 114.5,256.5C 108.5,256.5 102.5,256.5 96.5,256.5C 96.5,246.167 96.5,235.833 96.5,225.5C 98.4672,225.261 100.301,225.594 102,226.5C 102.171,235.01 102.671,243.343 103.5,251.5 Z"/></g>
<g><path style="opacity:0.027" fill="#cceefa" d="M 179.5,258.5 C 178.833,257.833 178.167,257.167 177.5,256.5C 177.5,256.167 177.5,255.833 177.5,255.5C 178.117,255.389 178.617,255.056 179,254.5C 179.49,255.793 179.657,257.127 179.5,258.5 Z"/></g>
</svg>
